<?xml version="1.0" standalone="no"?>
<!DOCTYPE svg PUBLIC "-//W3C//DTD SVG 20010904//EN"
 "http://www.w3.org/TR/2001/REC-SVG-20010904/DTD/svg10.dtd">
<svg version="1.0" xmlns="http://www.w3.org/2000/svg"
 width="512.000000pt" height="512.000000pt" viewBox="0 0 512.000000 512.000000"
 preserveAspectRatio="xMidYMid meet">
<metadata>
Created by potrace 1.11, written by Peter Selinger 2001-2013
</metadata>
<g transform="translate(0.000000,512.000000) scale(0.100000,-0.100000)"
fill="#000000" stroke="none">
<path d="M1910 4822 c-20 -16 -22 -27 -23 -134 l-1 -117 -465 -4 c-256 -2
-482 -7 -501 -11 -50 -11 -220 -93 -220 -105 0 -6 -7 -11 -15 -11 -22 0 -140
-122 -171 -176 -47 -82 -63 -114 -59 -114 3 0 -1 -13 -9 -28 -8 -15 -17 -48
-21 -72 -4 -25 -9 -48 -11 -51 -4 -7 -4 -3120 0 -3171 2 -16 6 -31 9 -35 4 -3
7 -15 7 -25 0 -46 101 -230 152 -277 12 -12 17 -25 13 -32 -5 -7 -4 -10 3 -5
14 8 44 -22 36 -37 -5 -9 -4 -9 5 -1 10 9 20 5 42 -17 16 -16 36 -29 44 -29 8
0 15 -4 15 -9 0 -5 12 -12 26 -15 18 -5 24 -11 20 -23 -5 -12 -4 -13 7 -5 8 7
17 8 21 4 4 -4 11 -7 14 -7 25 -2 51 -18 46 -28 -5 -9 -3 -9 6 0 9 8 19 9 32
2 10 -5 18 -7 18 -3 0 3 6 2 13 -3 6 -5 29 -10 49 -12 89 -6 3156 -5 3152 1
-2 4 17 10 43 13 27 4 77 21 113 38 36 17 76 30 90 29 16 -1 20 1 12 7 -9 5
-1 16 30 37 50 34 102 83 144 139 33 42 97 155 88 155 -2 0 2 13 11 30 8 16
15 40 15 53 0 13 3 27 7 31 4 3 8 16 9 29 2 12 3 727 4 1588 1 1399 -1 1572
-15 1634 -9 38 -21 78 -28 89 -6 12 -12 26 -13 33 -1 7 -12 26 -23 42 -12 16
-21 32 -21 36 0 21 -128 165 -147 165 -6 0 -13 4 -15 8 -13 32 -184 116 -259
127 -24 4 -46 8 -50 11 -4 2 -210 4 -458 4 -421 1 -452 2 -449 18 2 9 8 20 13
24 6 5 5 8 -2 8 -7 0 -13 7 -13 16 0 9 5 12 12 8 8 -5 8 -3 2 7 -5 8 -9 44
-10 81 -1 118 65 108 -669 108 -592 0 -634 -1 -655 -18z"/>
<path d="M706 318 c3 -4 9 -8 15 -8 5 0 9 4 9 8 0 5 -7 9 -15 9 -8 0 -12 -4
-9 -9z"/>
<path d="M1475 211 c-3 -5 -2 -12 3 -15 5 -3 9 1 9 9 0 17 -3 19 -12 6z"/>
<path d="M1955 211 c-3 -5 -2 -12 3 -15 5 -3 9 1 9 9 0 17 -3 19 -12 6z"/>
<path d="M2435 211 c-3 -5 -2 -12 3 -15 5 -3 9 1 9 9 0 17 -3 19 -12 6z"/>
<path d="M2915 211 c-3 -5 -2 -12 3 -15 5 -3 9 1 9 9 0 17 -3 19 -12 6z"/>
<path d="M3395 211 c-3 -5 -2 -12 3 -15 5 -3 9 1 9 9 0 17 -3 19 -12 6z"/>
<path d="M3875 211 c-3 -5 -2 -12 3 -15 5 -3 9 1 9 9 0 17 -3 19 -12 6z"/>
</g>
</svg>
